<svg width="24" height="23" viewBox="0 0 24 23" fill="none" xmlns="http://www.w3.org/2000/svg">
<rect x="0.5" width="23" height="23" rx="11.5" fill="#419FD9"/>
<rect x="0.5" width="23" height="23" rx="11.5" fill="url(#paint0_linear_44_2329)"/>
<path d="M5.66895 11.2465C9.0132 9.75881 11.2432 8.77805 12.359 8.3042C15.5449 6.95125 16.2068 6.71623 16.6383 6.70839C16.7332 6.70676 16.9454 6.73078 17.0828 6.84465C17.1989 6.9408 17.2308 7.07069 17.2461 7.16185C17.2614 7.25301 17.2804 7.46068 17.2653 7.62295C17.0927 9.47503 16.3456 13.9695 15.9656 16.0439C15.8048 16.9217 15.4882 17.216 15.1816 17.2448C14.5154 17.3073 14.0096 16.7952 13.3643 16.3634C12.3547 15.6876 11.7843 15.267 10.8042 14.6076C9.67158 13.8455 10.4058 13.4266 11.0513 12.7421C11.2202 12.563 14.1554 9.83705 14.2123 9.58977C14.2194 9.55884 14.226 9.44356 14.1589 9.38268C14.0918 9.32181 13.9928 9.34263 13.9214 9.35918C13.8201 9.38265 12.2071 10.4712 9.08251 12.6247C8.62468 12.9457 8.20999 13.1021 7.83844 13.0939C7.42884 13.0849 6.64093 12.8574 6.0552 12.663C5.33678 12.4246 4.7658 12.2985 4.81552 11.8936C4.84142 11.6827 5.12589 11.467 5.66895 11.2465Z" fill="white"/>
<defs>
<linearGradient id="paint0_linear_44_2329" x1="12" y1="0" x2="12" y2="22.8293" gradientUnits="userSpaceOnUse">
<stop stop-color="#2AABEE"/>
<stop offset="1" stop-color="#229ED9"/>
</linearGradient>
</defs>
</svg>
