<svg width="20" height="20" viewBox="0 0 20 20" fill="none" xmlns="http://www.w3.org/2000/svg">
<path d="M0 10C0 4.47715 4.47715 0 10 0C15.5228 0 20 4.47715 20 10C20 15.5228 15.5228 20 10 20C4.47715 20 0 15.5228 0 10Z" fill="black"/>
<path d="M9.06148 8.93778V8.54849C8.92811 8.53067 8.79252 8.51953 8.65248 8.51953C6.98314 8.51734 5.625 9.87661 5.625 11.5496C5.625 12.5752 6.13625 13.4828 6.91868 14.0323C6.4141 13.4918 6.10513 12.7643 6.10513 11.9678C6.10513 10.3193 7.42548 8.9756 9.06148 8.93778Z" fill="#25F4EE"/>
<path d="M9.13494 13.3515C9.8796 13.3515 10.4886 12.7575 10.5153 12.0189L10.5176 5.41824H11.7223C11.6979 5.28254 11.6845 5.14238 11.6845 5H10.0396L10.0374 11.6007C10.0108 12.3393 9.40167 12.9332 8.65704 12.9332C8.42587 12.9332 8.20803 12.8754 8.01465 12.7731C8.2636 13.1223 8.6726 13.3515 9.13494 13.3515Z" fill="#25F4EE"/>
<path d="M13.9741 7.65852V7.29147C13.5139 7.29147 13.0871 7.15575 12.7271 6.91992C13.0471 7.28701 13.4806 7.55399 13.9741 7.65852Z" fill="#25F4EE"/>
<path d="M12.7271 6.91987C12.3759 6.51721 12.1647 5.99218 12.1647 5.41821H11.7246C11.8379 6.04558 12.2114 6.58396 12.7271 6.91987Z" fill="#FE2C55"/>
<path d="M8.65457 10.1636C7.89214 10.1636 7.27197 10.7843 7.27197 11.5473C7.27197 12.0791 7.57427 12.5418 8.01439 12.7732C7.84991 12.5462 7.7521 12.2682 7.7521 11.9656C7.7521 11.2025 8.37227 10.5818 9.13471 10.5818C9.27696 10.5818 9.41477 10.6063 9.54369 10.6463V8.9645C9.41031 8.94668 9.27474 8.93555 9.13471 8.93555C9.11024 8.93555 9.08802 8.93777 9.06356 8.93777V10.2281C8.93242 10.188 8.79682 10.1636 8.65457 10.1636Z" fill="#FE2C55"/>
<path d="M13.9737 7.65845V8.93764C13.1201 8.93764 12.3288 8.66402 11.6842 8.20127V11.5494C11.6842 13.2202 10.3261 14.5817 8.65448 14.5817C8.00986 14.5817 7.4097 14.377 6.91846 14.0322C7.47194 14.6262 8.26104 15 9.13462 15C10.8039 15 12.1643 13.6407 12.1643 11.9677V8.61951C12.8089 9.08226 13.6002 9.35588 14.4538 9.35588V7.70964C14.2871 7.70964 14.1271 7.69182 13.9737 7.65845Z" fill="#FE2C55"/>
<path d="M11.6842 11.5495V8.20129C12.3289 8.66404 13.1202 8.93766 13.9738 8.93766V7.65847C13.4803 7.55393 13.0468 7.28696 12.7268 6.91987C12.2111 6.58396 11.8399 6.04558 11.722 5.41821H10.5173L10.515 12.0189C10.4884 12.7575 9.87932 13.3515 9.1347 13.3515C8.67234 13.3515 8.26556 13.1223 8.01216 12.7753C7.57204 12.5417 7.26974 12.0812 7.26974 11.5495C7.26974 10.7864 7.8899 10.1657 8.65233 10.1657C8.79459 10.1657 8.93241 10.1902 9.06133 10.2302V8.93989C7.42534 8.97549 6.10498 10.3192 6.10498 11.9677C6.10498 12.7641 6.41395 13.4894 6.91853 14.0322C7.40977 14.377 8.00994 14.5817 8.65455 14.5817C10.3239 14.5817 11.6842 13.2202 11.6842 11.5495Z" fill="white"/>
</svg>
