<svg width="12" height="10" viewBox="0 0 12 10" fill="none" xmlns="http://www.w3.org/2000/svg">
<path d="M11.5678 1.11292C11.1423 1.30159 10.6846 1.4292 10.2046 1.48619C10.6947 1.19257 11.0708 0.727965 11.2483 0.173451C10.7897 0.445487 10.2816 0.642832 9.74124 0.749204C9.30832 0.288142 8.6915 0 8.0085 0C6.69805 0 5.63522 1.06283 5.63522 2.37327C5.63522 2.55929 5.65628 2.74035 5.69699 2.91416C3.7246 2.81522 1.97575 1.87044 0.805133 0.434159C0.600885 0.784602 0.483717 1.19257 0.483717 1.62743C0.483717 2.45062 0.903009 3.17735 1.53947 3.60283C1.15062 3.59062 0.784425 3.48389 0.464602 3.30566C0.464425 3.31575 0.464425 3.32584 0.464425 3.33575C0.464425 4.48566 1.28283 5.44478 2.36832 5.66265C2.16938 5.71717 1.95929 5.74602 1.74319 5.74602C1.58991 5.74602 1.44142 5.73133 1.29664 5.70372C1.59858 6.64637 2.47487 7.33257 3.51363 7.35186C2.70124 7.9885 1.67805 8.36779 0.565841 8.36779C0.37469 8.36779 0.18531 8.35664 0 8.33451C1.04973 9.00814 2.29752 9.40088 3.6377 9.40088C8.00301 9.40088 10.3903 5.7846 10.3903 2.64814C10.3903 2.54531 10.388 2.44283 10.3834 2.34124C10.8474 2.00673 11.2497 1.58885 11.5678 1.11292Z" fill="white"/>
</svg>
