<svg width="14" height="9" viewBox="0 0 14 9" fill="none" xmlns="http://www.w3.org/2000/svg">
<path fill-rule="evenodd" clip-rule="evenodd" d="M6.55372 8.28354H7.33301C7.33301 8.28354 7.56841 8.2577 7.68858 8.12815C7.7992 8.00921 7.79566 7.78585 7.79566 7.78585C7.79566 7.78585 7.78044 6.74018 8.26575 6.5862C8.74416 6.43452 9.35849 7.59682 10.0096 8.04372C10.502 8.38195 10.8762 8.30779 10.8762 8.30779L12.6173 8.28354C12.6173 8.28354 13.5281 8.22744 13.0962 7.51133C13.0608 7.45275 12.8447 6.9816 11.8017 6.01346C10.71 5.00018 10.8562 5.16408 12.1712 3.41133C12.9721 2.3439 13.2923 1.69222 13.1923 1.4131C13.0969 1.14726 12.5079 1.21753 12.5079 1.21753L10.5475 1.22974C10.5475 1.22974 10.4022 1.20992 10.2944 1.27434C10.1891 1.33753 10.1213 1.48478 10.1213 1.48478C10.1213 1.48478 9.81106 2.3108 9.39726 3.01328C8.52434 4.49558 8.17531 4.57381 8.03265 4.48177C7.7008 4.26726 7.78363 3.62 7.78363 3.16018C7.78363 1.72372 8.0015 1.12478 7.35938 0.969739C7.14628 0.918235 6.98947 0.884252 6.44451 0.878766C5.74504 0.871509 5.15301 0.88089 4.81779 1.04514C4.59478 1.15434 4.42274 1.3977 4.52752 1.41169C4.65708 1.42903 4.95053 1.4908 5.1061 1.70266C5.30699 1.97593 5.29991 2.58974 5.29991 2.58974C5.29991 2.58974 5.41531 4.28071 5.03035 4.4908C4.76611 4.63487 4.40363 4.34071 3.6254 2.99593C3.22664 2.30708 2.92557 1.54567 2.92557 1.54567C2.92557 1.54567 2.86752 1.40337 2.76398 1.32726C2.63832 1.23505 2.46274 1.20567 2.46274 1.20567L0.59991 1.21788C0.59991 1.21788 0.320264 1.22567 0.21761 1.34726C0.126282 1.4554 0.210353 1.67912 0.210353 1.67912C0.210353 1.67912 1.66876 5.09116 3.32009 6.81062C4.83425 8.38708 6.55372 8.28354 6.55372 8.28354Z" fill="white"/>
</svg>
