<svg width="20" height="20" viewBox="0 0 20 20" fill="none" xmlns="http://www.w3.org/2000/svg">
<rect width="20" height="20" rx="10" fill="#4598D8"/>
<path fill-rule="evenodd" clip-rule="evenodd" d="M16.3594 6.88895C16.4522 6.57992 16.3594 6.35278 15.9183 6.35278H14.4596C14.0887 6.35278 13.9178 6.54897 13.8251 6.76538C13.8251 6.76538 13.0833 8.57341 12.0324 9.74785C11.6924 10.0878 11.5379 10.1959 11.3524 10.1959C11.2597 10.1959 11.1255 10.0878 11.1255 9.77879V6.88895C11.1255 6.51803 11.0179 6.35278 10.7088 6.35278H8.41655C8.18483 6.35278 8.04542 6.52491 8.04542 6.68807C8.04542 7.03971 8.57075 7.12078 8.62493 8.10976V10.2579C8.62493 10.7288 8.53991 10.8142 8.35445 10.8142C7.85996 10.8142 6.65718 8.99798 5.94368 6.91989C5.80386 6.51595 5.66362 6.35278 5.29082 6.35278H3.83215C3.41538 6.35278 3.33203 6.54897 3.33203 6.76538C3.33203 7.15172 3.82663 9.068 5.63465 11.6023C6.84014 13.333 8.53825 14.2713 10.0836 14.2713C11.0109 14.2713 11.1255 14.0629 11.1255 13.704V12.3959C11.1255 11.9791 11.2134 11.896 11.5069 11.896C11.7234 11.896 12.0942 12.0041 12.9597 12.8386C13.9487 13.8274 14.1116 14.2713 14.668 14.2713H16.1267C16.5434 14.2713 16.7518 14.0629 16.6316 13.6517C16.5001 13.2418 16.0279 12.6473 15.4013 11.9423C15.0613 11.5405 14.5513 11.1077 14.3969 10.8914C14.1805 10.6133 14.2423 10.4897 14.3969 10.2425C14.3969 10.2425 16.174 7.73904 16.3594 6.88905V6.88895Z" fill="white"/>
</svg>
