<svg width="20" height="20" viewBox="0 0 20 20" fill="none" xmlns="http://www.w3.org/2000/svg">
<rect width="20" height="20" rx="10" fill="#FF0000"/>
<path fill-rule="evenodd" clip-rule="evenodd" d="M14.8908 5.89149C15.4262 6.03564 15.8484 6.4578 15.9925 6.99321C16.2602 7.97138 16.2499 10.0101 16.2499 10.0101C16.2499 10.0101 16.2499 12.0385 15.9925 13.0167C15.8484 13.5521 15.4262 13.9742 14.8908 14.1184C13.9126 14.3758 9.99997 14.3758 9.99997 14.3758C9.99997 14.3758 6.0976 14.3758 5.10914 14.1081C4.57372 13.9639 4.15156 13.5418 4.00741 13.0064C3.75 12.0385 3.75 9.99979 3.75 9.99979C3.75 9.99979 3.75 7.97138 4.00741 6.99321C4.15156 6.4578 4.58402 6.02534 5.10914 5.88119C6.0873 5.62378 9.99997 5.62378 9.99997 5.62378C9.99997 5.62378 13.9126 5.62378 14.8908 5.89149ZM12.0071 9.99981L8.75342 11.8738V8.12585L12.0071 9.99981Z" fill="white"/>
</svg>
