<svg width="61" height="56" viewBox="0 0 61 56" fill="none" xmlns="http://www.w3.org/2000/svg">
<path d="M0.0395508 10.8974C0.0395508 5.3746 4.5167 0.897461 10.0396 0.897461H50.5357C56.0585 0.897461 60.5357 5.37461 60.5357 10.8975V38.3319C60.5357 43.8547 56.0585 48.3318 50.5357 48.3318H39.3418C37.6527 48.3318 36.0442 49.0543 34.9221 50.3168L34.6645 50.6068C32.3729 53.1853 28.3148 53.0899 26.1469 50.4066C25.0868 49.0944 23.4903 48.3318 21.8034 48.3318H10.0395C4.51669 48.3318 0.0395508 43.8547 0.0395508 38.3318V10.8974Z" fill="#EE6962"/>
<path d="M39.5416 11.2383C36.0842 11.2383 33.0383 12.967 31.3096 15.6836C29.5809 12.967 26.535 11.2383 23.0776 11.2383C17.6445 11.2383 13.1992 15.6836 13.1992 21.1167C13.1992 30.9128 31.3096 40.8735 31.3096 40.8735C31.3096 40.8735 49.42 30.9951 49.42 21.1167C49.42 15.6836 44.9747 11.2383 39.5416 11.2383Z" fill="white"/>
</svg>
