<svg width="23" height="20" viewBox="0 0 23 20" fill="none" xmlns="http://www.w3.org/2000/svg">
<path d="M3.40213 3.2847C2.96162 3.73534 2.61219 4.27033 2.3738 4.85912C2.1354 5.4479 2.0127 6.07896 2.0127 6.71627C2.0127 7.35358 2.1354 7.98463 2.3738 8.57342C2.61219 9.16221 2.96162 9.6972 3.40213 10.1478L11.5002 18.4323L19.5983 10.1478C20.4879 9.23773 20.9877 8.00335 20.9877 6.71627C20.9877 5.42918 20.4879 4.19481 19.5983 3.2847C18.7087 2.37459 17.5021 1.86329 16.244 1.86329C14.9859 1.86329 13.7793 2.37459 12.8897 3.2847L11.5002 4.70607L10.1108 3.2847C9.67035 2.83406 9.1474 2.47659 8.57186 2.23269C7.99631 1.98881 7.37945 1.86328 6.75649 1.86328C6.13353 1.86328 5.51667 1.98881 4.94111 2.23269C4.36557 2.47659 3.84262 2.83406 3.40213 3.2847Z" stroke="#6B65E8" stroke-width="2" stroke-linecap="round" stroke-linejoin="round"/>
</svg>
