<svg width="276" height="242" viewBox="0 0 276 242" fill="none" xmlns="http://www.w3.org/2000/svg">
<rect x="54.5" y="15" width="167" height="167" rx="16" fill="url(#paint0_linear_44_2545)"/>
<g filter="url(#filter0_d_44_2545)">
<rect x="80.4648" y="40.9775" width="115.071" height="115.044" rx="14" fill="white"/>
</g>
<path d="M158.001 93.813C158.736 93.0775 158.736 91.8857 158.001 91.1502L156.707 89.8654C156.176 89.3254 156.009 88.5154 156.306 87.8078L157.005 86.1319C157.405 85.173 156.949 84.065 155.999 83.674L154.193 82.9478C153.486 82.6499 152.964 81.9702 152.964 81.2068V79.3261C152.964 78.2926 152.257 77.5851 151.223 77.5851H149.398C148.635 77.5851 147.946 77.0544 147.657 76.3561L146.968 74.6337C146.568 73.6747 145.469 73.1999 144.51 73.5909L142.769 74.2985C142.071 74.5871 141.261 74.4195 140.73 73.8888L139.399 72.5482C138.663 71.8219 137.472 71.8126 136.736 72.5482L135.451 73.8423C134.911 74.3823 134.101 74.5406 133.394 74.2426L131.718 73.5444C130.759 73.144 129.651 73.6002 129.26 74.5499L128.534 76.3561C128.236 77.0637 127.556 77.5851 126.793 77.5851H124.912C123.879 77.5851 123.171 78.2926 123.171 79.3261V81.1509C123.171 81.9144 122.64 82.6033 121.942 82.8919L120.22 83.5809C119.261 83.9813 118.786 85.0799 119.177 86.0388L119.884 87.7799C120.173 88.4782 120.005 89.2882 119.475 89.8188L118.134 91.1502C117.408 91.8857 117.399 93.0775 118.134 93.813L119.428 95.0978C119.968 95.6378 120.127 96.4478 119.829 97.1554L119.13 98.8313C118.73 99.7902 119.186 100.898 120.136 101.289L121.942 102.015C122.65 102.313 123.171 102.993 123.171 103.756V105.637C123.171 106.671 123.879 107.378 124.912 107.378H126.737C126.793 107.378 126.849 107.378 126.895 107.397C127.593 107.453 128.208 107.955 128.478 108.607L129.167 110.329C129.567 111.288 130.666 111.763 131.625 111.372L133.366 110.665C134.064 110.376 134.874 110.544 135.405 111.074L136.736 112.415C137.472 113.141 138.663 113.151 139.399 112.415L140.684 111.121C141.224 110.581 142.034 110.423 142.741 110.721L144.417 111.419C145.376 111.819 146.484 111.363 146.875 110.413L147.601 108.607C147.89 107.928 148.514 107.425 149.24 107.388C149.277 107.378 149.305 107.378 149.342 107.378H151.223C152.257 107.378 152.964 106.671 152.964 105.637V103.812C152.964 103.049 153.495 102.36 154.193 102.071L155.916 101.382C156.874 100.982 157.349 99.8833 156.958 98.9244L156.251 97.1833C155.962 96.485 156.13 95.675 156.66 95.1444L158.001 93.813Z" fill="#EE6962"/>
<path d="M149.241 107.387V124.137L138.069 120.412L126.896 124.137V107.397C127.595 107.452 128.209 107.955 128.479 108.607L129.168 110.329C129.569 111.288 130.667 111.763 131.626 111.372L133.367 110.664C134.065 110.376 134.875 110.543 135.406 111.074L136.737 112.415C137.473 113.141 138.665 113.15 139.4 112.415L140.685 111.121C141.225 110.581 142.035 110.422 142.743 110.72L144.419 111.419C145.377 111.819 146.485 111.363 146.876 110.413L147.603 108.607C147.891 107.927 148.515 107.424 149.241 107.387Z" fill="#444BD3"/>
<path d="M138.054 103.756C144.281 103.756 149.329 98.7083 149.329 92.4814C149.329 86.2545 144.281 81.2065 138.054 81.2065C131.827 81.2065 126.779 86.2545 126.779 92.4814C126.779 98.7083 131.827 103.756 138.054 103.756Z" fill="#FAC8B5"/>
<defs>
<filter id="filter0_d_44_2545" x="0.464844" y="0.977539" width="275.071" height="275.044" filterUnits="userSpaceOnUse" color-interpolation-filters="sRGB">
<feFlood flood-opacity="0" result="BackgroundImageFix"/>
<feColorMatrix in="SourceAlpha" type="matrix" values="0 0 0 0 0 0 0 0 0 0 0 0 0 0 0 0 0 0 127 0" result="hardAlpha"/>
<feOffset dy="40"/>
<feGaussianBlur stdDeviation="40"/>
<feColorMatrix type="matrix" values="0 0 0 0 0.983333 0 0 0 0 0.89456 0 0 0 0 0.876806 0 0 0 1 0"/>
<feBlend mode="normal" in2="BackgroundImageFix" result="effect1_dropShadow_44_2545"/>
<feBlend mode="normal" in="SourceGraphic" in2="effect1_dropShadow_44_2545" result="shape"/>
</filter>
<linearGradient id="paint0_linear_44_2545" x1="54.5" y1="15" x2="228.825" y2="171.033" gradientUnits="userSpaceOnUse">
<stop stop-color="#FFFAFA"/>
<stop offset="1" stop-color="#EAF7FA"/>
</linearGradient>
</defs>
</svg>
