<svg width="276" height="242" viewBox="0 0 276 242" fill="none" xmlns="http://www.w3.org/2000/svg">
<rect x="54.5" y="15" width="167" height="167" rx="16" fill="url(#paint0_linear_44_2527)"/>
<g filter="url(#filter0_d_44_2527)">
<rect x="80.4648" y="40.9775" width="115.071" height="115.044" rx="14" fill="white"/>
</g>
<g clip-path="url(#clip0_44_2527)">
<path d="M121.002 87.7329C121.002 86.6273 121.46 85.571 122.266 84.8148L134.266 73.5648C135.805 72.1223 138.199 72.1223 139.738 73.5648L151.738 84.8148C152.544 85.571 153.002 86.6273 153.002 87.7329V119C153.002 121.209 151.211 123 149.002 123H125.002C122.793 123 121.002 121.209 121.002 119V87.7329Z" fill="#FFB421"/>
<path d="M121 118H153V119C153 121.209 151.209 123 149 123H125C122.791 123 121 121.209 121 119V118Z" fill="#FAC8B5"/>
<path d="M140 104.9C140 106.3 140.9 107.5 142.6 107.5C144.2 107.5 145.2 106.3 145.2 104.9V104.2C145.2 102.8 144.3 101.6 142.6 101.6C141 101.6 140 102.8 140 104.2V104.9ZM130 98.2C130 99.6 130.9 100.8 132.6 100.8C134.3 100.8 135.2 99.6 135.2 98.2V97.6C135.1 96.2 134.2 95 132.6 95C130.9 95 130 96.2 130 97.6V98.2ZM141.6 104.2C141.6 103.6 141.8 103.1 142.5 103.1C143.2 103.1 143.4 103.7 143.4 104.2V104.8C143.4 105.4 143.2 105.9 142.5 105.9C141.8 105.9 141.6 105.3 141.6 104.8V104.2ZM131.7 97.6C131.7 97.1 131.9 96.5 132.6 96.5C133.3 96.5 133.5 97.1 133.5 97.6V98.2C133.5 98.8 133.3 99.3 132.6 99.3C131.9 99.3 131.7 98.7 131.7 98.2V97.6Z" fill="#444BD3"/>
<path fill-rule="evenodd" clip-rule="evenodd" d="M143.578 95.4478C143.883 95.7674 143.871 96.2738 143.552 96.5789C139.895 100.07 133.533 105.998 131.499 107.625C131.154 107.901 130.651 107.845 130.375 107.5C130.099 107.155 130.155 106.652 130.5 106.376C132.466 104.802 138.771 98.9306 142.447 95.4215C142.767 95.1164 143.273 95.1282 143.578 95.4478Z" fill="#444BD3"/>
<path d="M137 84C138.657 84 140 82.6569 140 81C140 79.3431 138.657 78 137 78C135.343 78 134 79.3431 134 81C134 82.6569 135.343 84 137 84Z" fill="#FAC8B5"/>
</g>
<defs>
<filter id="filter0_d_44_2527" x="0.464844" y="0.977539" width="275.071" height="275.044" filterUnits="userSpaceOnUse" color-interpolation-filters="sRGB">
<feFlood flood-opacity="0" result="BackgroundImageFix"/>
<feColorMatrix in="SourceAlpha" type="matrix" values="0 0 0 0 0 0 0 0 0 0 0 0 0 0 0 0 0 0 127 0" result="hardAlpha"/>
<feOffset dy="40"/>
<feGaussianBlur stdDeviation="40"/>
<feColorMatrix type="matrix" values="0 0 0 0 0.983333 0 0 0 0 0.89456 0 0 0 0 0.876806 0 0 0 1 0"/>
<feBlend mode="normal" in2="BackgroundImageFix" result="effect1_dropShadow_44_2527"/>
<feBlend mode="normal" in="SourceGraphic" in2="effect1_dropShadow_44_2527" result="shape"/>
</filter>
<linearGradient id="paint0_linear_44_2527" x1="54.5" y1="15" x2="228.825" y2="171.033" gradientUnits="userSpaceOnUse">
<stop stop-color="#FFFAFA"/>
<stop offset="1" stop-color="#EAF7FA"/>
</linearGradient>
<clipPath id="clip0_44_2527">
<rect width="61" height="56" fill="white" transform="translate(107.5 71)"/>
</clipPath>
</defs>
</svg>
