<svg width="16" height="20" viewBox="0 0 16 20" fill="none" xmlns="http://www.w3.org/2000/svg">
<path d="M11.6669 5.41667C11.6669 6.38913 11.2806 7.32176 10.5929 8.00939C9.90526 8.69703 8.97263 9.08333 8.00017 9.08333C7.02771 9.08333 6.09508 8.69703 5.40745 8.00939C4.71981 7.32176 4.3335 6.38913 4.3335 5.41667C4.3335 4.44421 4.71981 3.51158 5.40745 2.82394C6.09508 2.13631 7.02771 1.75 8.00017 1.75C8.97263 1.75 9.90526 2.13631 10.5929 2.82394C11.2806 3.51158 11.6669 4.44421 11.6669 5.41667ZM8.00017 11.8333C6.29837 11.8333 4.66626 12.5094 3.4629 13.7127C2.25954 14.9161 1.5835 16.5482 1.5835 18.25H14.4169C14.4169 16.5482 13.7408 14.9161 12.5375 13.7127C11.3341 12.5094 9.70198 11.8333 8.00017 11.8333Z" stroke="#6B65E8" stroke-width="2" stroke-linecap="round" stroke-linejoin="round"/>
</svg>
