<svg width="33" height="14" viewBox="0 0 33 14" fill="none" xmlns="http://www.w3.org/2000/svg">
<path d="M6.61344 2.28182C6.24824 2.71129 5.66393 3.05002 5.07961 3.00163C5.00657 2.42094 5.29264 1.80396 5.62741 1.42288C5.99261 0.981314 6.6317 0.666774 7.14907 0.642578C7.20993 1.24746 6.97255 1.84025 6.61344 2.28182ZM7.14298 3.11656C6.29694 3.06817 5.57263 3.59442 5.17091 3.59442C4.76311 3.59442 4.14835 3.14075 3.47883 3.15285C2.60844 3.16495 1.79891 3.65491 1.35459 4.43521C0.441594 5.99581 1.11721 8.30648 1.99977 9.57673C2.43192 10.2058 2.94929 10.8954 3.63099 10.8712C4.27617 10.847 4.53181 10.4538 5.3109 10.4538C6.09608 10.4538 6.32128 10.8712 7.00299 10.8591C7.70904 10.847 8.15336 10.23 8.58551 9.60093C9.07853 8.88717 9.27939 8.19155 9.29156 8.15525C9.27939 8.14316 7.92816 7.629 7.91598 6.0805C7.90381 4.78604 8.98114 4.16906 9.02984 4.13277C8.42117 3.23754 7.47166 3.14075 7.14298 3.11656ZM12.0305 1.36239V10.7926H13.5035V7.56852H15.5425C17.405 7.56852 18.7137 6.29826 18.7137 4.4594C18.7137 2.62055 17.4294 1.36239 15.5912 1.36239H12.0305V1.36239ZM13.5035 2.59636H15.2017C16.4799 2.59636 17.2103 3.27383 17.2103 4.46545C17.2103 5.65708 16.4799 6.3406 15.1956 6.3406H13.5035V2.59636V2.59636ZM21.404 10.8651C22.3291 10.8651 23.1873 10.3994 23.5769 9.66142H23.6073V10.7926H24.9707V6.09864C24.9707 4.73765 23.8751 3.86057 22.1891 3.86057C20.6249 3.86057 19.4684 4.74975 19.4258 5.97162H20.7527C20.8623 5.39093 21.404 5.00985 22.1465 5.00985C23.0474 5.00985 23.5525 5.42722 23.5525 6.19543V6.71563L21.7144 6.82451C20.004 6.92734 19.0789 7.62295 19.0789 8.83273C19.0789 10.0546 20.0345 10.8651 21.404 10.8651ZM21.7996 9.7461C21.0144 9.7461 20.5153 9.37107 20.5153 8.79643C20.5153 8.20365 20.9962 7.85886 21.9152 7.80442L23.5525 7.70159V8.23389C23.5525 9.11702 22.7978 9.7461 21.7996 9.7461ZM26.7906 13.3573C28.2271 13.3573 28.9027 12.8129 29.4931 11.1615L32.0799 3.9513H30.5826L28.8479 9.5223H28.8175L27.0828 3.9513H25.5429L28.0384 10.8167L27.9045 11.2341C27.6793 11.9418 27.3141 12.214 26.6628 12.214C26.5472 12.214 26.322 12.2019 26.2307 12.1898V13.321C26.3159 13.3452 26.6811 13.3573 26.7906 13.3573Z" fill="#888888"/>
</svg>
