<svg width="27" height="18" viewBox="0 0 27 18" fill="none" xmlns="http://www.w3.org/2000/svg">
<path d="M17.0779 15.3899H9.90356V2.61426H17.0779V15.3899Z" fill="#FF5F00"/>
<path d="M10.3632 9.00098C10.3632 6.40939 11.5878 4.10087 13.4948 2.61317C12.1002 1.5253 10.3402 0.875979 8.42747 0.875979C3.8992 0.875979 0.228516 4.51361 0.228516 9.00098C0.228516 13.4883 3.8992 17.126 8.42747 17.126C10.3402 17.126 12.1002 16.4767 13.4948 15.3888C11.5878 13.9011 10.3632 11.5926 10.3632 9.00098Z" fill="#EB001B"/>
<path d="M26.7539 9.00098C26.7539 13.4883 23.0832 17.126 18.5549 17.126C16.6422 17.126 14.8821 16.4767 13.4871 15.3888C15.3946 13.9011 16.6192 11.5926 16.6192 9.00098C16.6192 6.40939 15.3946 4.10087 13.4871 2.61317C14.8821 1.5253 16.6422 0.875979 18.5549 0.875979C23.0832 0.875979 26.7539 4.51361 26.7539 9.00098Z" fill="#F79E1B"/>
<path d="M6.39807 9.05245C6.39807 8.69755 6.63279 8.406 7.01634 8.406C7.38281 8.406 7.63021 8.68498 7.63021 9.05245C7.63021 9.41992 7.38281 9.69891 7.01634 9.69891C6.63279 9.69891 6.39807 9.40735 6.39807 9.05245ZM8.04792 9.05245V8.04288H7.60484V8.28802C7.4643 8.10622 7.25105 7.99211 6.9612 7.99211C6.38978 7.99211 5.94182 8.43597 5.94182 9.05245C5.94182 9.66941 6.38978 10.1128 6.9612 10.1128C7.25105 10.1128 7.4643 9.99868 7.60484 9.81688V10.062H8.04792V9.05245ZM23.0209 9.05245C23.0209 8.69755 23.2557 8.406 23.6392 8.406C24.0062 8.406 24.2531 8.68498 24.2531 9.05245C24.2531 9.41992 24.0062 9.69891 23.6392 9.69891C23.2557 9.69891 23.0209 9.40735 23.0209 9.05245ZM24.6713 9.05245V7.23203H24.2277V8.28802C24.0872 8.10622 23.8739 7.99211 23.5841 7.99211C23.0126 7.99211 22.5647 8.43597 22.5647 9.05245C22.5647 9.66941 23.0126 10.1128 23.5841 10.1128C23.8739 10.1128 24.0872 9.99868 24.2277 9.81688V10.062H24.6713V9.05245ZM13.5479 8.3852C13.8333 8.3852 14.0168 8.56265 14.0637 8.875H13.0062C13.0536 8.58344 13.2322 8.3852 13.5479 8.3852ZM13.5567 7.99211C12.9594 7.99211 12.5417 8.42292 12.5417 9.05245C12.5417 9.69456 12.9765 10.1128 13.5864 10.1128C13.8934 10.1128 14.1744 10.0369 14.4218 9.82994L14.2047 9.50453C14.0339 9.63943 13.8163 9.71583 13.6118 9.71583C13.3263 9.71583 13.0663 9.5848 13.0023 9.2212H14.5155C14.5199 9.16656 14.5243 9.11144 14.5243 9.05245C14.5199 8.42292 14.1276 7.99211 13.5567 7.99211ZM18.9068 9.05245C18.9068 8.69755 19.1415 8.406 19.5251 8.406C19.8916 8.406 20.139 8.68498 20.139 9.05245C20.139 9.41992 19.8916 9.69891 19.5251 9.69891C19.1415 9.69891 18.9068 9.40735 18.9068 9.05245ZM20.5567 9.05245V8.04288H20.1136V8.28802C19.9726 8.10622 19.7598 7.99211 19.4699 7.99211C18.8985 7.99211 18.4506 8.43597 18.4506 9.05245C18.4506 9.66941 18.8985 10.1128 19.4699 10.1128C19.7598 10.1128 19.9726 9.99868 20.1136 9.81688V10.062H20.5567V9.05245ZM16.4045 9.05245C16.4045 9.66506 16.8349 10.1128 17.4917 10.1128C17.7986 10.1128 18.0031 10.0451 18.2246 9.872L18.0119 9.51711C17.8455 9.63557 17.6708 9.69891 17.4785 9.69891C17.1247 9.69456 16.8647 9.44119 16.8647 9.05245C16.8647 8.66371 17.1247 8.41035 17.4785 8.406C17.6708 8.406 17.8455 8.46934 18.0119 8.5878L18.2246 8.2329C18.0031 8.0598 17.7986 7.99211 17.4917 7.99211C16.8349 7.99211 16.4045 8.43984 16.4045 9.05245ZM22.1172 7.99211C21.8615 7.99211 21.6951 8.11057 21.58 8.28802V8.04288H21.1408V10.062H21.5843V8.93012C21.5843 8.59602 21.7293 8.41035 22.0191 8.41035C22.1089 8.41035 22.2026 8.42292 22.2963 8.46112L22.4329 8.04723C22.3349 8.00903 22.207 7.99211 22.1172 7.99211ZM10.2394 8.2034C10.0262 8.06415 9.73241 7.99211 9.40839 7.99211C8.89211 7.99211 8.5598 8.23725 8.5598 8.63856C8.5598 8.96784 8.80721 9.17091 9.26298 9.23425L9.47232 9.26375C9.71533 9.29759 9.83 9.36093 9.83 9.47504C9.83 9.63121 9.668 9.72018 9.36545 9.72018C9.05852 9.72018 8.83697 9.623 8.68765 9.50889L8.4788 9.85073C8.72181 10.0282 9.02875 10.1128 9.36106 10.1128C9.94956 10.1128 10.2907 9.83816 10.2907 9.45377C10.2907 9.09887 10.0223 8.9132 9.5787 8.84986L9.36984 8.81988C9.17807 8.79474 9.02436 8.75703 9.02436 8.62164C9.02436 8.47369 9.16928 8.3852 9.4123 8.3852C9.67239 8.3852 9.92418 8.48239 10.0476 8.5583L10.2394 8.2034ZM15.9565 7.99211C15.7008 7.99211 15.5344 8.11057 15.4198 8.28802V8.04288H14.9806V10.062H15.4237V8.93012C15.4237 8.59602 15.5686 8.41035 15.8584 8.41035C15.9482 8.41035 16.0419 8.42292 16.1356 8.46112L16.2722 8.04723C16.1742 8.00903 16.0463 7.99211 15.9565 7.99211ZM12.1752 8.04288H11.4506V7.43027H11.0026V8.04288H10.5893V8.44419H11.0026V9.36528C11.0026 9.83381 11.1861 10.1128 11.7102 10.1128C11.9024 10.1128 12.124 10.0538 12.2645 9.95662L12.1367 9.58045C12.0044 9.65636 11.8595 9.69456 11.7443 9.69456C11.5228 9.69456 11.4506 9.55917 11.4506 9.35658V8.44419H12.1752V8.04288ZM5.54997 10.062V8.79474C5.54997 8.31751 5.24304 7.99646 4.74823 7.99211C4.48814 7.98776 4.21975 8.06802 4.03188 8.35136C3.89135 8.12749 3.66981 7.99211 3.35848 7.99211C3.14084 7.99211 2.92808 8.05545 2.76168 8.29189V8.04288H2.31812V10.062H2.76559V8.94269C2.76559 8.59215 2.96175 8.406 3.26479 8.406C3.55904 8.406 3.70787 8.59602 3.70787 8.93834V10.062H4.15583V8.94269C4.15583 8.59215 4.36029 8.406 4.65454 8.406C4.95708 8.406 5.10201 8.59602 5.10201 8.93834V10.062H5.54997Z" fill="white"/>
</svg>
