<svg width="30" height="8" viewBox="0 0 30 8" fill="none" xmlns="http://www.w3.org/2000/svg">
<path d="M5.05399 2.81285C5.05399 3.49393 4.83841 4.01556 4.40863 4.37637C3.97885 4.73718 3.3676 4.91827 2.57489 4.91827H1.99229V7.16963H0.637451V0.837158H2.67995C3.45492 0.837158 4.04434 1.00202 4.4482 1.33311C4.85206 1.66419 5.05399 2.15744 5.05399 2.81285ZM1.99229 3.81691H2.43845C2.85459 3.81691 3.16703 3.73583 3.37442 3.57231C3.58181 3.4088 3.68414 3.17231 3.68414 2.86014C3.68414 2.54528 3.59682 2.31284 3.42354 2.16284C3.25026 2.01284 2.97875 1.93717 2.60763 1.93717H1.99229V3.81691Z" fill="#404040"/>
<path d="M9.08574 7.16832L8.62185 5.66155H6.29147L5.82758 7.16832H4.36768L6.62438 0.811523H8.28212L10.547 7.16832H9.08574ZM8.29849 4.53587C7.87007 3.171 7.62857 2.39802 7.57536 2.21964C7.52079 2.04126 7.48258 1.89937 7.45939 1.79531C7.36388 2.16423 7.08827 3.07911 6.63257 4.53587H8.29849Z" fill="#404040"/>
<path d="M12.273 3.44393L13.6074 0.837158H15.0673L12.947 4.70475V7.16828H11.6004V4.74799L9.47876 0.837158H10.9482L12.273 3.44393Z" fill="#404040"/>
<path d="M19.2615 7.16828H15.5803V0.837158H19.2615V1.93717H16.9352V3.32771H19.0991V4.42772H16.9352V6.06016H19.2615V7.16828Z" fill="#4598D8"/>
<path d="M23.9848 7.16828H20.3037V0.837158H23.9848V1.93717H21.6586V3.32771H23.8225V4.42772H21.6586V6.06016H23.9848V7.16828Z" fill="#4598D8"/>
<path d="M26.2786 4.73989V7.16963H24.9224V0.837158H26.7848C27.6539 0.837158 28.2965 0.993916 28.7126 1.30743C29.1301 1.62095 29.3375 2.09663 29.3375 2.73447C29.3375 3.10744 29.2338 3.43853 29.0265 3.72907C28.8191 4.01961 28.5271 4.24664 28.1478 4.41151C29.5245 7.16963 28.1478 4.41151 29.5245 7.16963H28.0209L26.9976 4.73989H26.2786ZM26.2786 3.64799H26.7152C27.1436 3.64799 27.4601 3.57772 27.6648 3.43582C27.8681 3.29393 27.9704 3.07231 27.9704 2.76825C27.9704 2.46825 27.8654 2.25473 27.658 2.12771C27.4506 2.00068 27.1272 1.93717 26.6893 1.93717H26.2786V3.64799Z" fill="#4598D8"/>
</svg>
