<svg width="34" height="15" viewBox="0 0 34 15" fill="none" xmlns="http://www.w3.org/2000/svg">
<path d="M16.6633 8.33232H17.1902V9.47449H17.5709L18.2539 8.33232H18.8299L18.0101 9.67282V9.68221L18.8788 11.1451H18.2834L17.5806 9.91781H17.2002V11.1451H16.673V8.33203H16.6633V8.33232ZM20.0596 9.07812C20.6935 9.07812 21.211 9.52173 21.211 10.1352C21.211 10.7584 20.7036 11.1926 20.0693 11.1926C19.4348 11.1926 18.9273 10.7584 18.9273 10.1352C18.9176 9.51234 19.4251 9.07812 20.0596 9.07812V9.07812ZM21.6208 9.12506H22.1185V10.7111H22.7725V9.12536H23.2699V10.7111H23.9239V9.12536H24.4217V11.1451H21.6402V9.12506H21.6208ZM25.8955 9.07812C26.4906 9.07812 26.8224 9.50295 26.8224 10.0316C26.8208 10.098 26.8143 10.1642 26.803 10.2297H25.3683C25.3977 10.5788 25.6807 10.7678 25.9932 10.7678C26.2076 10.7678 26.4224 10.6733 26.5883 10.5506L26.7933 10.9095C26.5786 11.0884 26.2564 11.202 25.954 11.202C25.2609 11.202 24.8317 10.7205 24.8317 10.1446C24.8317 9.51234 25.2707 9.07812 25.8955 9.07812V9.07812ZM27.0663 10.7205C27.3202 10.6827 27.5055 10.4752 27.5055 9.75761V9.12536H29.0282V11.1451H28.5107V9.53082H28.0033V9.75732C28.0033 10.6351 27.7594 11.1451 27.0663 11.1638V10.7202V10.7205ZM30.5114 9.07812C31.1065 9.07812 31.4384 9.50295 31.4384 10.0316C31.4367 10.098 31.4302 10.1642 31.419 10.2297H29.9842C30.0137 10.5788 30.2967 10.7678 30.6091 10.7678C30.8235 10.7678 31.0383 10.6733 31.2042 10.5506L31.4092 10.9095C31.1945 11.0884 30.8724 11.202 30.57 11.202C29.8772 11.202 29.4477 10.7205 29.4477 10.1446C29.4477 9.51234 29.8869 9.07812 30.5114 9.07812V9.07812ZM31.8679 9.12506H32.385V9.89932H32.6389L33.1464 9.12536H33.7221L33.0584 10.088V10.0977L33.8 11.1451H33.1952L32.6486 10.3242H32.3756V11.1451H31.8579V9.12506H31.8676H31.8679ZM20.0596 10.7584C20.4011 10.7584 20.6841 10.5034 20.6841 10.1258C20.6841 9.75761 20.4011 9.49327 20.0593 9.49327C19.7181 9.49327 19.4448 9.74852 19.4448 10.1258C19.4448 10.5034 19.7178 10.7584 20.0596 10.7584ZM26.2956 9.88054C26.2956 9.6162 26.1099 9.45572 25.8758 9.45572C25.6125 9.45572 25.4172 9.62559 25.3683 9.88054H26.2956ZM30.9115 9.88054C30.9115 9.6162 30.7262 9.45572 30.492 9.45572C30.2281 9.45572 30.0331 9.62559 29.9842 9.88054H30.9115Z" fill="#2D3540"/>
<path d="M23.9533 2.20597V6.97298C23.9537 6.99042 23.9504 7.00777 23.9437 7.02397C23.937 7.04017 23.927 7.05488 23.9142 7.06723C23.9014 7.07957 23.8862 7.08928 23.8695 7.09577C23.8527 7.10226 23.8348 7.1054 23.8168 7.105H22.8116C22.7935 7.1054 22.7756 7.10226 22.7588 7.09577C22.7421 7.08928 22.7269 7.07957 22.7141 7.06723C22.7014 7.05488 22.6913 7.04017 22.6846 7.02397C22.6779 7.00777 22.6747 6.99042 22.6751 6.97298V2.20597C22.6747 2.18852 22.6779 2.17118 22.6846 2.15498C22.6913 2.13878 22.7014 2.12406 22.7141 2.11172C22.7269 2.09938 22.7421 2.08967 22.7588 2.08318C22.7756 2.07669 22.7935 2.07355 22.8116 2.07395H23.8168C23.8348 2.07355 23.8527 2.07669 23.8695 2.08318C23.8862 2.08967 23.9014 2.09938 23.9142 2.11172C23.927 2.12406 23.937 2.13878 23.9437 2.15498C23.9504 2.17118 23.9537 2.18852 23.9533 2.20597ZM31.7996 2.07395C31.8387 2.07395 31.8875 2.09272 31.936 2.13057C31.9655 2.15874 31.9655 2.20597 31.9558 2.24382L30.2966 7.02021C30.2865 7.04493 30.2691 7.0662 30.2465 7.08135C30.224 7.09649 30.1973 7.10482 30.1698 7.10529H29.272C29.2134 7.10529 29.1646 7.07684 29.1452 7.02021L28.1785 4.23565L27.2124 7.01992C27.2024 7.04464 27.1849 7.06591 27.1624 7.08105C27.1398 7.0962 27.1131 7.10453 27.0857 7.105H26.1878C26.1293 7.105 26.0804 7.07684 26.061 7.01992L24.4019 2.24353C24.3922 2.20597 24.3922 2.16812 24.4213 2.13057C24.441 2.09272 24.4898 2.07395 24.5287 2.07395H25.6509C25.7095 2.07395 25.7583 2.1115 25.778 2.16812L26.6659 4.99054L27.6419 2.16812C27.652 2.14341 27.6694 2.12213 27.692 2.10699C27.7146 2.09185 27.7413 2.08351 27.7687 2.08304H28.5592C28.6177 2.08304 28.6666 2.1115 28.686 2.16812L29.6621 4.99054L30.5502 2.16812C30.5581 2.14139 30.5747 2.11782 30.5976 2.10087C30.6204 2.08392 30.6482 2.07449 30.677 2.07395H31.7992H31.7996ZM33.4975 2.07395C33.5658 2.07395 33.6243 2.13057 33.634 2.20597V6.97298C33.6344 6.99042 33.6312 7.00777 33.6245 7.02397C33.6178 7.04017 33.6077 7.05488 33.595 7.06723C33.5822 7.07957 33.567 7.08928 33.5503 7.09577C33.5335 7.10226 33.5156 7.1054 33.4975 7.105H32.4923C32.4743 7.1054 32.4564 7.10226 32.4396 7.09577C32.4229 7.08928 32.4077 7.07957 32.3949 7.06723C32.3821 7.05488 32.3721 7.04017 32.3654 7.02397C32.3587 7.00777 32.3554 6.99042 32.3558 6.97298V2.20597C32.3554 2.18852 32.3587 2.17118 32.3654 2.15498C32.3721 2.13878 32.3821 2.12406 32.3949 2.11172C32.4077 2.09938 32.4229 2.08967 32.4396 2.08318C32.4564 2.07669 32.4743 2.07355 32.4923 2.07395H33.4975ZM22.0894 6.93542C22.1479 7.00143 22.0991 7.09561 22.0111 7.09561H20.7814C20.7572 7.09625 20.7332 7.09146 20.7112 7.08164C20.6892 7.07182 20.6699 7.05723 20.6547 7.03899L20.4499 6.79371C20.0204 7.05777 19.5127 7.21854 18.9761 7.21854C17.4734 7.21854 16.2535 6.03853 16.2535 4.58478C16.2535 3.13103 17.4734 1.95102 18.9761 1.95102C20.479 1.95102 21.699 3.13103 21.699 4.58478C21.699 5.10408 21.5428 5.59492 21.2695 6.01007L22.0894 6.93513V6.93542ZM11.8129 9.24792C12.0667 9.34239 12.1644 9.71031 12.1838 9.87079C12.223 10.1636 12.1353 10.2768 12.0376 10.2768C11.94 10.2768 11.8032 10.1636 11.657 9.9371C11.5105 9.71031 11.4519 9.45564 11.5302 9.32333C11.5787 9.23824 11.6861 9.20069 11.8132 9.24792H11.8129ZM10.3296 10.3147C10.4858 10.3147 10.6615 10.3807 10.8177 10.5127C11.1201 10.7583 11.208 11.0414 11.0518 11.2491C10.9639 11.353 10.8177 11.419 10.6518 11.419C10.4858 11.419 10.3102 11.3624 10.1931 11.2585C9.91985 11.032 9.84189 10.6541 10.0172 10.4467C10.0858 10.3616 10.1931 10.3147 10.3296 10.3147V10.3147ZM6.91425 13.0426C3.20555 13.0426 0.199951 10.1351 0.199951 6.54815C0.199951 2.96116 3.20585 0.0539551 6.91394 0.0539551C10.6223 0.0539551 13.6282 2.96145 13.6282 6.54815C13.6282 7.76572 13.277 8.90818 12.6819 9.88047C12.6622 9.90864 12.6133 9.89925 12.6036 9.8614C12.3695 8.26624 11.3643 7.38812 9.90044 7.12407C9.77334 7.105 9.75393 7.0296 9.91985 7.01082C10.3688 6.97298 11.003 6.98236 11.3348 7.03899C11.3542 6.8785 11.3643 6.70863 11.3643 6.53876C11.3643 4.16934 9.37327 2.24353 6.92365 2.24353C4.47434 2.24353 2.48335 4.16934 2.48335 6.53876C2.48335 8.90818 4.47434 10.834 6.92395 10.834H7.1287C7.05914 10.4507 7.02967 10.0617 7.04073 9.67275C7.05074 9.40841 7.10928 9.37056 7.22636 9.57828C7.84119 10.6072 8.71961 11.5323 10.437 11.9005C11.8423 12.2027 13.2476 12.5518 14.7602 14.4113C14.8967 14.5718 14.692 14.7417 14.5358 14.6096C12.994 13.2879 11.5887 12.8537 10.3102 12.8537C8.87552 12.8634 7.89974 13.0426 6.91394 13.0426H6.91425ZM19.6495 5.87804L19.1126 5.24549C19.0543 5.17948 19.1032 5.07562 19.1908 5.07562H20.3228C20.3814 4.92453 20.4108 4.75465 20.4108 4.58478C20.4108 3.80143 19.8057 3.12164 18.9761 3.12164C18.1468 3.12164 17.5414 3.80143 17.5414 4.58478C17.5414 5.36813 18.1468 6.03853 18.9761 6.03853C19.2102 6.04792 19.4447 5.9819 19.6495 5.87804V5.87804Z" fill="#FF8C00"/>
</svg>
