<svg width="43" height="27" viewBox="0 0 43 27" fill="none" xmlns="http://www.w3.org/2000/svg">
<path d="M24.7811 6C20.2332 6 16.6155 9.59493 16.6155 14C16.6155 18.4557 20.2849 22 24.7811 22C29.2774 22 32.9468 18.4051 32.9468 14C32.9468 9.59493 29.2774 6 24.7811 6ZM24.7811 16.9873C23.1273 16.9873 21.7319 15.6203 21.7319 14C21.7319 12.3797 23.1273 11.0127 24.7811 11.0127C26.435 11.0127 27.8303 12.3797 27.8303 14C27.7787 15.6203 26.435 16.9873 24.7811 16.9873Z" fill="#8B3FFD"/>
<path d="M16.6152 8.32935V19.9749H13.7211L10 8.32935H16.6152Z" fill="#8B3FFD"/>
</svg>
