<svg width="32" height="12" viewBox="0 0 32 12" fill="none" xmlns="http://www.w3.org/2000/svg">
<path d="M2.89253 4.75887C2.89253 4.46686 3.19443 4.32085 3.59695 4.32085C4.20075 4.32085 5.00581 4.51553 5.6096 4.85621V3.00679C4.95549 2.76345 4.25106 2.61744 3.59695 2.61744C1.98684 2.61744 0.879883 3.44481 0.879883 4.85621C0.879883 6.99764 3.89885 6.60829 3.89885 7.58167C3.89885 7.92235 3.59695 8.06836 3.14411 8.06836C2.49 8.06836 1.63462 7.77634 0.980515 7.43566V9.28508C1.73526 9.57709 2.43968 9.7231 3.14411 9.7231C4.80454 9.7231 5.9115 8.9444 5.9115 7.533C5.96181 5.19689 2.89253 5.63491 2.89253 4.75887V4.75887ZM15.4212 9.57709H17.4339V2.76345H15.4212V9.57709ZM8.57825 1.15737L6.61592 1.54673V7.67901C6.61592 8.84706 7.52161 9.67443 8.67888 9.67443C9.33299 9.67443 9.83615 9.57709 10.0877 9.43109V7.87368C9.83615 7.97102 8.57825 8.3117 8.57825 7.19232V4.41819H10.0877V2.76345H8.57825V1.15737ZM12.8048 3.34747L12.7545 2.76345H10.9431V9.57709H12.9558V4.95355C13.4589 4.36952 14.3143 4.46686 14.5659 4.5642V2.76345C14.3143 2.66611 13.308 2.5201 12.8048 3.34747V3.34747ZM15.4212 2.22809L17.4339 1.83874V0.232666L15.4212 0.622017V2.22809V2.22809ZM31.1199 6.17027C31.1199 4.17485 30.1136 2.61744 28.2015 2.61744C26.2895 2.61744 25.1323 4.17485 25.1323 6.17027C25.1323 8.50638 26.4908 9.67443 28.4531 9.67443C29.4091 9.67443 30.1136 9.47976 30.667 9.13907V7.63034C30.1136 7.92235 29.5098 8.06836 28.7047 8.06836C27.8996 8.06836 27.2455 7.77634 27.1449 6.85163H31.0696C31.1199 6.7543 31.1199 6.36495 31.1199 6.17027V6.17027ZM27.1449 5.44024C27.1449 4.5642 27.6984 4.22351 28.2015 4.22351C28.7047 4.22351 29.2079 4.5642 29.2079 5.44024H27.1449ZM21.8617 2.61744C21.0567 2.61744 20.6038 2.95812 20.3019 3.25014L20.2516 2.76345H18.4402V11.7672L20.4529 11.4265V9.23641C20.7548 9.43109 21.1573 9.7231 21.8617 9.7231C23.3209 9.7231 24.6291 8.60371 24.6291 6.1216C24.5788 3.88283 23.2706 2.61744 21.8617 2.61744V2.61744ZM21.3586 7.97102C20.9057 7.97102 20.6038 7.82501 20.4025 7.58167V4.7102C20.6038 4.46686 20.9057 4.32085 21.3586 4.32085C22.1133 4.32085 22.6165 5.09955 22.6165 6.1216C22.6165 7.19232 22.1133 7.97102 21.3586 7.97102Z" fill="#6974DE"/>
</svg>
