<svg width="33" height="10" viewBox="0 0 33 10" fill="none" xmlns="http://www.w3.org/2000/svg">
<path d="M14.4226 9.49735H11.8984L13.4772 0.531006H16.0013L14.4226 9.49735Z" fill="#00579F"/>
<path d="M23.5728 0.750385C23.0749 0.568964 22.2853 0.368652 21.3088 0.368652C18.8161 0.368652 17.0608 1.58954 17.05 3.33504C17.0293 4.62286 18.3068 5.33815 19.2622 5.76755C20.2388 6.20633 20.5708 6.49273 20.5708 6.88384C20.5608 7.48452 19.7816 7.76141 19.0549 7.76141C18.0471 7.76141 17.5072 7.61866 16.6866 7.28447L16.3542 7.14121L16.001 9.15395C16.593 9.40168 17.6837 9.62152 18.8161 9.63115C21.4647 9.63115 23.189 8.42916 23.2094 6.56905C23.2195 5.54835 22.5449 4.76625 21.0906 4.12715C20.2078 3.7169 19.6671 3.44026 19.6671 3.0205C19.6774 2.63889 20.1244 2.24803 21.121 2.24803C21.9416 2.22889 22.5445 2.41005 23.0012 2.59135L23.2295 2.68656L23.5728 0.750385V0.750385Z" fill="#00579F"/>
<path d="M26.9278 6.32089C27.1357 5.80579 27.9355 3.81218 27.9355 3.81218C27.9251 3.83133 28.143 3.28757 28.2676 2.95376L28.4441 3.72635C28.4441 3.72635 28.9221 5.8726 29.0259 6.32089C28.6314 6.32089 27.4263 6.32089 26.9278 6.32089ZM30.0436 0.531006H28.0911C27.489 0.531006 27.0316 0.69303 26.7718 1.27495L23.0225 9.49722H25.671C25.671 9.49722 26.107 8.39057 26.2008 8.15222C26.4913 8.15222 29.0678 8.15222 29.4416 8.15222C29.5141 8.46701 29.7428 9.49722 29.7428 9.49722H32.0799L30.0436 0.531006V0.531006Z" fill="#00579F"/>
<path d="M9.79008 0.531006L7.31808 6.64519L7.04795 5.40516C6.59093 3.97433 5.15761 2.41976 3.55811 1.64679L5.82237 9.48784H8.49162L12.4592 0.531006H9.79008V0.531006Z" fill="#00579F"/>
<path d="M5.02262 0.531006H0.961469L0.919922 0.712173C4.08788 1.45624 6.18595 3.24979 7.04795 5.40555L6.16511 1.28471C6.01976 0.712047 5.57309 0.549896 5.02262 0.531006Z" fill="#FAA61A"/>
</svg>
