<svg width="22" height="18" viewBox="0 0 22 18" fill="none" xmlns="http://www.w3.org/2000/svg">
<path d="M11.0485 0.0625C11.9496 0.0625 12.807 0.260805 13.5763 0.615539C13.6969 0.667825 13.8184 0.730404 13.9386 0.793039L13.4111 1.24188L12.6203 0.459167L11.2576 1.60702L10.4552 0.782475L7.94946 2.92191L9.55372 4.6021L8.92744 5.12376L10.5102 6.80395L9.88386 7.3254L12.1479 9.71526L13.4879 8.54639L14.6534 9.79903C14.4224 9.96602 14.1696 10.1333 13.8952 10.2792C13.0598 10.7279 12.0926 10.9883 11.0597 10.9883C7.88329 10.9883 5.30106 8.53636 5.30106 5.52069C5.28984 2.5254 7.87253 0.0625 11.0485 0.0625ZM9.99335 5.18651L11.3671 4.01763L12.5983 5.32207L11.2242 6.49083L9.99335 5.18651ZM10.9717 7.4407L12.3343 6.26148L13.5763 7.56581L12.2025 8.73474L10.9717 7.4407ZM9.01583 2.96379L10.3892 1.79492L11.6201 3.09935L10.2462 4.26817L9.01583 2.96379ZM11.532 2.33745L12.5542 1.46089L13.4775 2.43145L12.4554 3.31837L11.532 2.33745ZM13.3565 6.35521L14.3783 5.4786L15.3017 6.4593L14.2795 7.33645L13.3565 6.35521ZM14.2576 8.32777L15.2798 7.451L16.2024 8.42151L15.1806 9.30831L14.2576 8.32777ZM14.6753 3.81933L15.3565 3.23486L15.9718 3.88212L15.2906 4.46637L14.6753 3.81933ZM13.7961 1.88871L14.4774 1.294L15.0931 1.95134L14.4112 2.53575L13.7961 1.88871ZM15.5434 5.75011L16.2246 5.1657L16.851 5.81274L16.1589 6.39699L15.5434 5.75011ZM12.4773 4.29949L13.4995 3.42288L14.4224 4.39323L13.4006 5.27L12.4773 4.29949Z" fill="#036CB5"/>
<path d="M2.07817 14.8759H2.04622L1.44633 17.08H0.956004L0.219971 13.9487H0.728711L1.23757 16.2852H1.26935L1.85985 13.9487H2.26432L2.89583 16.2852H2.92763L3.39109 13.9487H3.92268L3.18646 17.08H2.69576L2.07817 14.8759Z" fill="#036CB5"/>
<path d="M4.56811 15.747H5.60828C5.58572 15.2834 5.35389 15.0981 5.10865 15.0981C4.83153 15.0981 4.61787 15.3056 4.56811 15.747ZM5.97168 16.5775V16.9132C5.76729 17.028 5.49484 17.1164 5.16755 17.1164C4.40452 17.1164 4.09106 16.6571 4.09106 15.9594C4.09106 15.2878 4.4408 14.802 5.12228 14.802C5.69001 14.802 6.04004 15.16 6.04004 15.8797V16.0431H4.559C4.559 16.5729 4.78148 16.8071 5.24959 16.8071C5.49485 16.8071 5.722 16.723 5.97168 16.5775Z" fill="#036CB5"/>
<path d="M7.09682 16.7622C7.24223 16.824 7.40136 16.8332 7.51512 16.8332C7.85123 16.8332 8.10536 16.6297 8.10536 15.9144C8.10536 15.3536 7.89641 15.1725 7.59215 15.1725C7.41029 15.1725 7.2786 15.2212 7.09682 15.3182V16.7622H7.09682ZM7.1016 14.9914C7.23756 14.921 7.46921 14.828 7.71464 14.828C8.27803 14.828 8.58247 15.2077 8.58247 15.9144C8.58247 16.7404 8.17352 17.1423 7.51513 17.1423C7.27415 17.1423 6.90164 17.0672 6.62891 16.9255V13.8432L7.10161 13.7329V14.9914H7.1016Z" fill="#036CB5"/>
<path d="M10.6272 16.4156H10.6499L11.622 13.9468H12.1856V17.0783H11.695V14.8081H11.654L10.7271 17.0783H10.4366L9.50946 14.8611H9.46873V17.0783H9.05981V13.9468H9.60969L10.6272 16.4156Z" fill="#036CB5"/>
<path d="M14.1901 15.9593C14.1901 15.3631 13.9404 15.1115 13.6315 15.1115C13.3317 15.1115 13.0725 15.3631 13.0725 15.9593C13.0725 16.5644 13.3091 16.8071 13.6315 16.8071C13.9538 16.8071 14.1901 16.5644 14.1901 15.9593ZM12.5957 15.9593C12.5957 15.1861 13.0319 14.802 13.6315 14.802C14.2313 14.802 14.6673 15.1861 14.6673 15.9593C14.6673 16.7143 14.2539 17.1164 13.6315 17.1164C13.0091 17.1164 12.5957 16.7143 12.5957 15.9593Z" fill="#036CB5"/>
<path d="M15.0266 15.1291C15.231 15.0096 15.6628 14.802 16.1851 14.802C16.7302 14.802 16.9343 15.0096 16.9343 15.4644V17.0634H16.4622V15.5661C16.4622 15.2173 16.2853 15.1555 16.0533 15.1555C15.8718 15.1555 15.6398 15.2351 15.4991 15.3146V17.0634H15.0266V15.1291H15.0266Z" fill="#036CB5"/>
<path d="M17.9344 15.747H18.9747C18.9523 15.2834 18.7204 15.0981 18.475 15.0981C18.1978 15.0981 17.9846 15.3056 17.9344 15.747ZM19.338 16.5775V16.9132C19.1337 17.028 18.8611 17.1164 18.534 17.1164C17.7712 17.1164 17.4575 16.6571 17.4575 15.9594C17.4575 15.2878 17.8071 14.802 18.4887 14.802C19.0567 14.802 19.4067 15.16 19.4067 15.8797V16.0431H17.9255C17.9255 16.5729 18.1481 16.8071 18.6161 16.8071C18.8611 16.8071 19.0886 16.723 19.338 16.5775Z" fill="#036CB5"/>
<path d="M21.2936 14.802H21.7799L20.9575 17.0099C20.7301 17.6195 20.4532 17.9375 19.9309 17.9375V17.5756C20.24 17.5756 20.4305 17.337 20.5398 17.0099L19.6675 14.802H20.1673L20.7488 16.4272H20.776L21.2936 14.802Z" fill="#036CB5"/>
</svg>
